<?xml version="1.0" standalone="no"?>
<!DOCTYPE svg PUBLIC "-//W3C//DTD SVG 20010904//EN"
 "http://www.w3.org/TR/2001/REC-SVG-20010904/DTD/svg10.dtd">
<svg version="1.0" xmlns="http://www.w3.org/2000/svg"
 width="700.000000pt" height="700.000000pt" viewBox="0 0 700.000000 700.000000"
 preserveAspectRatio="xMidYMid meet">
<metadata>
Created by potrace 1.11, written by Peter Selinger 2001-2013
</metadata>
<g transform="translate(0.000000,700.000000) scale(0.100000,-0.100000)"
fill="#000000" stroke="none">
<path d="M3278 6995 c-2 -1 -37 -5 -78 -9 -97 -8 -222 -23 -285 -36 -27 -5
-61 -12 -75 -14 -83 -14 -199 -42 -300 -71 -131 -38 -370 -122 -385 -136 -5
-5 -14 -9 -21 -9 -21 0 -263 -120 -389 -193 -872 -505 -1499 -1386 -1680
-2362 -10 -49 -18 -97 -20 -105 -2 -9 -6 -43 -10 -75 -4 -33 -9 -69 -11 -79
-25 -139 -25 -674 0 -813 2 -10 7 -45 11 -78 4 -32 9 -68 11 -80 2 -11 7 -36
10 -55 28 -177 114 -476 196 -680 45 -112 138 -309 198 -415 294 -527 748
-991 1270 -1297 348 -205 706 -341 1115 -423 112 -22 127 -25 190 -31 33 -3
63 -8 66 -10 15 -9 234 -19 414 -19 270 0 360 8 600 50 173 31 171 30 319 71
493 136 957 380 1344 709 95 80 282 265 355 350 33 39 63 72 66 75 4 3 36 43
72 90 108 140 223 313 294 445 21 39 48 89 61 112 109 199 263 633 309 872 26
139 38 211 61 386 8 62 11 533 4 610 -13 132 -21 202 -25 227 -3 13 -8 43 -11
68 -3 25 -9 61 -14 80 -5 19 -12 51 -15 70 -11 66 -64 265 -95 360 -208 630
-574 1172 -1085 1606 -222 188 -549 393 -805 504 -52 22 -104 45 -115 50 -155
75 -588 194 -780 216 -27 3 -53 8 -56 9 -3 2 -35 7 -71 10 -35 4 -78 9 -94 11
-33 5 -540 14 -546 9z m1245 -1885 c3 -3 -47 -108 -110 -235 -64 -126 -155
-309 -203 -405 l-87 -175 -816 1 -815 1 8 -21 c4 -12 49 -103 99 -203 l92
-183 615 0 614 0 -205 -409 -204 -409 -196 0 c-108 0 -198 -2 -201 -5 -3 -3
222 -459 500 -1013 278 -554 506 -1011 506 -1015 0 -4 -276 -8 -613 -8 l-613
-1 -40 83 c-22 45 -482 963 -1022 2039 l-982 1958 1273 2 c1770 4 2395 3 2400
-2z m1635 -3 c3 -9 -1809 -3632 -1826 -3649 -4 -4 -145 266 -314 600 l-306
607 614 1225 614 1225 608 0 c334 -1 608 -4 610 -8z"/>
</g>
</svg>
